<?xml version="1.0" standalone="no"?>
<!DOCTYPE svg PUBLIC "-//W3C//DTD SVG 20010904//EN"
 "http://www.w3.org/TR/2001/REC-SVG-20010904/DTD/svg10.dtd">
<svg version="1.0" xmlns="http://www.w3.org/2000/svg"
 width="280.000000pt" height="280.000000pt" viewBox="0 0 280.000000 280.000000"
 preserveAspectRatio="xMidYMid meet">
<metadata>
Created by potrace 1.11, written by Peter Selinger 2001-2013
</metadata>
<g transform="translate(0.000000,280.000000) scale(0.100000,-0.100000)"
fill="#000000" stroke="none">
<path d="M0 1400 l0 -1400 1400 0 1400 0 0 1400 0 1400 -1400 0 -1400 0 0
-1400z m1880 1090 c0 -6 50 -10 130 -10 80 0 130 4 130 10 0 6 11 10 25 10 20
0 25 -5 25 -27 0 -14 -11 -41 -25 -59 -32 -41 -32 -72 -2 -79 12 -3 89 -7 170
-8 l149 -2 30 -34 c27 -30 30 -39 26 -80 -7 -60 -47 -149 -71 -157 -11 -3 -95
-6 -188 -6 -170 0 -199 5 -199 38 0 22 -30 44 -60 44 -20 0 -35 -10 -56 -37
-15 -21 -29 -40 -31 -42 -7 -9 -357 -1 -366 8 -5 5 -4 18 3 30 15 29 5 41 -34
41 -45 0 -105 -46 -161 -122 -25 -34 -45 -66 -45 -70 0 -5 -16 -31 -35 -58
-19 -27 -35 -52 -35 -54 0 -2 -36 -61 -80 -130 -44 -70 -80 -129 -80 -132 0
-3 -13 -24 -28 -47 -52 -77 -252 -396 -252 -403 0 -2 -16 -26 -35 -53 -19 -26
-35 -52 -35 -55 0 -4 -11 -22 -25 -40 -14 -18 -25 -36 -25 -40 0 -4 -11 -24
-25 -44 -33 -48 -32 -85 1 -111 15 -12 33 -21 41 -21 18 0 56 42 87 94 23 41
73 122 201 325 39 61 75 119 80 129 6 9 17 28 26 42 9 14 54 86 100 160 45 74
94 150 107 168 l24 32 184 0 c140 0 184 -3 184 -12 0 -7 -15 -35 -34 -63 -32
-48 -155 -244 -232 -370 -40 -66 -48 -78 -152 -242 -40 -62 -72 -115 -72 -119
0 -3 -14 -24 -31 -45 -36 -46 -37 -92 -2 -97 29 -4 91 29 129 70 28 29 124
171 124 183 0 4 98 161 186 297 24 37 44 70 44 73 0 3 8 18 19 33 10 15 40 61
66 102 26 41 64 100 84 130 l36 55 185 0 c179 0 185 -1 182 -20 -2 -11 -12
-29 -21 -40 -10 -11 -21 -27 -24 -35 -4 -8 -24 -42 -45 -75 -21 -33 -80 -127
-132 -210 -51 -82 -112 -179 -135 -215 -22 -36 -54 -86 -71 -113 -145 -235
-221 -318 -349 -382 l-80 -40 -181 -5 c-209 -6 -198 -1 -259 -106 -21 -36 -51
-79 -66 -95 l-27 -29 -172 1 c-140 0 -172 3 -177 15 -3 8 17 48 46 90 82 121
79 124 -134 124 l-161 0 -30 31 c-23 24 -29 39 -28 72 1 47 51 159 112 253 21
32 80 127 132 209 91 148 120 194 203 327 23 37 60 97 82 133 22 36 70 113
107 171 38 57 68 107 68 110 0 3 41 67 91 142 103 154 164 214 274 268 87 43
153 54 321 54 144 0 142 -1 189 75 33 54 70 94 88 94 9 1 17 -3 17 -9z m-20
-563 c0 -15 -24 -52 -58 -89 l-26 -28 -178 0 c-205 0 -206 1 -142 83 l37 47
183 0 c143 0 184 -3 184 -13z m530 -6 c0 -10 -16 -39 -35 -64 l-35 -46 -178
-3 c-97 -2 -181 0 -185 3 -11 8 13 56 49 98 l26 31 179 0 c168 0 179 -1 179
-19z"/>
</g>
</svg>
